<svg width="24" height="24" viewBox="0 0 24 24" fill="none" xmlns="http://www.w3.org/2000/svg">
<path d="M10.6803 3.64512C11.2462 2.59115 12.7577 2.59122 13.3235 3.64524L15.3157 7.35671L14.0849 6.9464C13.6133 6.78922 13.1036 7.04406 12.9464 7.51561C12.7892 7.98716 13.0441 8.49685 13.5156 8.65404L17.1156 9.85404C17.3653 9.93727 17.6389 9.90702 17.8645 9.77125C18.09 9.63548 18.2447 9.40781 18.288 9.14818L18.888 5.54818C18.9697 5.05788 18.6385 4.59418 18.1482 4.51247C17.6579 4.43075 17.1942 4.76197 17.1125 5.25226L16.9032 6.50814L14.9094 2.79391C13.6646 0.475064 10.3394 0.474916 9.09439 2.79365L7.01236 6.67142C6.77243 7.1183 6.94897 7.67508 7.40257 7.90204C7.83807 8.11993 8.36788 7.95193 8.59823 7.52291L10.6803 3.64512ZM20.3267 16.6916L18.0332 12.419C17.7932 11.9721 17.97 11.4153 18.4237 11.1884C18.8592 10.9707 19.3889 11.1387 19.6192 11.5677L21.9126 15.8404C23.0928 18.0388 21.5003 20.7011 19.0051 20.7011H14.7739L15.6366 21.5639C15.9881 21.9152 15.9881 22.4851 15.6366 22.8366C15.2851 23.1881 14.7154 23.1881 14.3639 22.8366L11.9638 20.4366C11.6124 20.0851 11.6124 19.5152 11.9638 19.1639L14.3639 16.7639C14.7154 16.4124 15.2851 16.4124 15.6366 16.7639C15.9881 17.1152 15.9881 17.6851 15.6366 18.0366L14.7721 18.9011H19.0051C20.1392 18.9011 20.8631 17.6909 20.3267 16.6916ZM8.7 18.9011C9.19705 18.9011 9.6 19.304 9.6 19.8011C9.6 20.2981 9.19705 20.7011 8.7 20.7011H4.99702C2.50174 20.7011 0.909217 18.0385 2.0896 15.84L4.30518 11.7135L2.68504 12.2539C2.21352 12.4112 1.70379 12.1565 1.54649 11.685C1.38921 11.2135 1.64394 10.7038 2.11546 10.5465L5.71546 9.34558C5.94192 9.27004 6.18913 9.28757 6.40267 9.39432C6.61623 9.50107 6.7786 9.6883 6.85408 9.9148L8.05408 13.5157C8.21123 13.9872 7.95635 14.497 7.48479 14.654C7.01323 14.8112 6.50356 14.5564 6.34641 14.0848L5.85952 12.6238L3.67546 16.6915C3.13893 17.6908 3.8628 18.9011 4.99702 18.9011H8.7Z" fill="#212121"/>
</svg>
