<svg width="24" height="24" viewBox="0 0 24 24" fill="none" xmlns="http://www.w3.org/2000/svg">
<g opacity="0.7" clip-path="url(#clip0_18_1466)">
<path d="M6 2H18C18.2652 2 18.5196 2.10536 18.7071 2.29289C18.8946 2.48043 19 2.73478 19 3V22.143C19.0001 22.2324 18.9763 22.3202 18.9309 22.3973C18.8855 22.4743 18.8204 22.5378 18.7421 22.5811C18.6639 22.6244 18.5755 22.6459 18.4861 22.6434C18.3968 22.641 18.3097 22.6146 18.234 22.567L12 18.03L5.766 22.566C5.69037 22.6135 5.60339 22.6399 5.5141 22.6424C5.42482 22.6449 5.33649 22.6235 5.2583 22.5803C5.1801 22.5371 5.11491 22.4738 5.06948 22.3969C5.02406 22.32 5.00007 22.2323 5 22.143V3C5 2.73478 5.10536 2.48043 5.29289 2.29289C5.48043 2.10536 5.73478 2 6 2ZM17 4H7V19.432L12 15.671L17 19.432V4Z" fill="#9C9EA8"/>
</g>
<defs>
<clipPath id="clip0_18_1466">
<rect width="24" height="24" fill="white"/>
</clipPath>
</defs>
</svg>
