<svg width="23" height="21" viewBox="0 0 23 21" fill="none" xmlns="http://www.w3.org/2000/svg">
<path d="M22.8098 3.10193L22.4265 2.88808C19.0988 0.995447 15.3332 0 11.5014 0C7.66955 0 3.90396 0.995447 0.576311 2.88808L0.192976 3.10193C0.109563 3.14946 0.0471167 3.22648 0.0180083 3.31771C-0.0111001 3.40895 -0.00474743 3.50774 0.0358079 3.59453L2.71916 9.32253C2.761 9.41265 2.83644 9.48299 2.92947 9.51863C3.0225 9.55428 3.12581 9.55242 3.2175 9.51346C3.54333 9.37599 3.88067 9.24615 4.218 9.13159V19.0907C4.21827 19.148 4.2315 19.2046 4.25672 19.2562C4.28194 19.3077 4.31849 19.353 4.36367 19.3885C4.44417 19.4725 6.44135 21 11.5014 21C16.5614 21 18.5586 19.4725 18.6391 19.3885C18.6843 19.353 18.7208 19.3077 18.746 19.2562C18.7713 19.2046 18.7845 19.148 18.7848 19.0907V9.12396C19.1221 9.24615 19.4556 9.37599 19.7853 9.50582C19.8769 9.54478 19.9803 9.54664 20.0733 9.51099C20.1663 9.47535 20.2418 9.40501 20.2836 9.31489L22.967 3.5869C23.0053 3.50096 23.0105 3.40396 22.9815 3.31447C22.9525 3.22498 22.8913 3.1493 22.8098 3.10193ZM11.5014 0.761084C12.3986 0.761781 13.2948 0.819176 14.1847 0.932924C14.1847 1.64186 13.902 2.32177 13.3988 2.82307C12.8956 3.32436 12.2131 3.60599 11.5014 3.60599C10.7897 3.60599 10.1072 3.32436 9.60397 2.82307C9.10074 2.32177 8.81803 1.64186 8.81803 0.932924C9.70793 0.819176 10.6042 0.761781 11.5014 0.761084ZM19.7431 8.66954C19.4288 8.54352 19.1068 8.42896 18.7848 8.31822V6.10721H18.0181V18.8883C17.4929 19.2129 15.5226 20.2363 11.5014 20.2363C7.48019 20.2363 5.50601 19.2129 4.98467 18.8883V6.10721H4.218V8.31822C3.896 8.42896 3.574 8.54352 3.25966 8.66954L0.88298 3.59071L0.95198 3.55253C3.14978 2.30142 5.55383 1.45056 8.05136 1.03985C8.05136 1.95134 8.41484 2.8255 9.06185 3.47003C9.70885 4.11455 10.5864 4.47664 11.5014 4.47664C12.4164 4.47664 13.2939 4.11455 13.9409 3.47003C14.5879 2.8255 14.9514 1.95134 14.9514 1.03985C17.4542 1.4488 19.8636 2.29972 22.0661 3.55253L22.1351 3.59071L19.7431 8.66954Z" fill="#9C9EA8"/>
</svg>
